<svg xmlns="http://www.w3.org/2000/svg" viewBox="0 0 1011.8 803.37"><defs><style>.cls-1{isolation:isolate;}.cls-2{fill:#1a53ac;}.cls-3{fill:#95a9e8;}.cls-4{fill:#f8961e;}.cls-5{fill:#fff;}.cls-6{fill:#083d69;}.cls-7{fill:#94b8ec;}.cls-8{fill:#99b4f9;}.cls-9{mix-blend-mode:multiply;}.cls-10{fill:#b0b8cc;}.cls-11{fill:#b5ccee;}.cls-12{fill:#f9c74f;}.cls-13{fill:#ffcbc3;}.cls-14{fill:#001735;}.cls-15{fill:#577590;}.cls-16{fill:#394fbf;}.cls-17{fill:#efeefe;}.cls-18{fill:#0b2c6f;}</style></defs><g class="cls-1"><g id="Шар_2" data-name="Шар 2"><g id="Layer_1" data-name="Layer 1"><path class="cls-2" d="M957,588.74s14.35-39.71,54.81-41.07C1011.8,547.67,996.79,594,957,588.74Z"/><path class="cls-2" d="M893.68,687.94s24.15-37.85,4.57-69.83C898.25,618.11,873.45,655.31,893.68,687.94Z"/><path d="M808.44,730.78l-.13-.85c83.14-12.78,121.16-70.27,138.42-116.24,18.71-49.87,17.73-97.33,17.72-97.81l.86,0c0,.48,1,48.09-17.76,98.11-11,29.39-26.62,53.86-46.34,72.72C876.55,710.28,845.34,725.11,808.44,730.78Z"/><path class="cls-2" d="M934.8,611.58s17.08-48.29-10.44-62.21C904,565.69,934.8,611.58,934.8,611.58Z"/><path d="M931,648.79l-.8-.34c13.21-31-6.06-90.73-6.26-91.33l.83-.27C925,557.45,944.34,617.51,931,648.79Z"/><path d="M892.92,694l-.8-.33c4-9.55,3.28-65.87,3.27-66.44h.87C896.29,629.56,897,684.31,892.92,694Z"/><path d="M952.29,600.12l-.81-.3c11.09-29.11,50-43.11,50.39-43.24l.29.81C1001.77,557.53,963.24,571.39,952.29,600.12Z"/><path class="cls-2" d="M965.36,511.14s-1.37-28.35,23.38-39.66C988.74,471.48,991.4,504.07,965.36,511.14Z"/><path d="M964.67,519.44c-.66-21,19.91-39.79,20.11-40l.58.64c-.2.18-20.47,18.71-19.83,39.3Z"/><path class="cls-2" d="M922.72,663.77s24.37-30.16,59.9-19.19C982.62,644.58,955.7,680.25,922.72,663.77Z"/><path d="M915.25,672.26l-.67-.55c18.38-22,56.36-22.42,56.74-22.42v.87C971,650.16,933.36,650.63,915.25,672.26Z"/><path class="cls-3" d="M890.13,612.3s14.35-39.71,54.81-41.07C944.94,571.23,929.94,617.52,890.13,612.3Z"/><path class="cls-3" d="M826.82,711.49s24.15-37.85,4.57-69.82C831.39,641.67,806.59,678.86,826.82,711.49Z"/><path d="M741.58,754.34l-.13-.86c83.14-12.77,121.16-70.26,138.42-116.24,18.71-49.86,17.73-97.32,17.72-97.8l.86,0c0,.47,1,48.08-17.76,98.1-11,29.4-26.62,53.87-46.34,72.73C809.69,733.84,778.48,748.67,741.58,754.34Z"/><path class="cls-3" d="M867.94,635.14S885,586.85,857.5,572.92C837.11,589.25,867.94,635.14,867.94,635.14Z"/><path d="M864.14,672.34l-.79-.34c13.2-31-6.07-90.72-6.27-91.32l.83-.27C858.11,581,877.48,641.07,864.14,672.34Z"/><path d="M826.06,717.58l-.8-.33c4-9.55,3.28-65.88,3.27-66.44l.87,0C829.43,653.12,830.11,707.86,826.06,717.58Z"/><path d="M885.43,623.68l-.81-.31c11.09-29.11,50-43.1,50.39-43.24l.29.82C934.91,581.09,896.38,595,885.43,623.68Z"/><path class="cls-3" d="M855.86,687.33s24.37-30.16,59.9-19.19C915.76,668.14,888.84,703.81,855.86,687.33Z"/><path d="M848.39,695.82l-.67-.56c18.38-21.94,56.36-22.41,56.74-22.41v.87C904.09,673.72,866.5,674.19,848.39,695.82Z"/><path class="cls-4" d="M903.25,547.22c9.71,2.47,23.91,13.48,5.63,19.76s-13.14-16.69-13.14-16.69-29.32.6-20.94-15.06,20.78,5.06,20.78,5.06,3-21,16.16-16.58S927.24,546.45,903.25,547.22Z"/><circle class="cls-5" cx="897.4" cy="545.59" r="7.28" transform="translate(-122.94 794.36) rotate(-45)"/><path class="cls-6" d="M784.71,696.36c9.86-5.65,23.37-46.49,61.06-45.4,0,0-10.32,10.62-14.51,18.31C820.13,689.67,784.71,696.36,784.71,696.36Z"/><path class="cls-6" d="M782.9,691.42c3.86-5.85,26.72-64.62,2.92-55.28C775,640.37,792.56,668.21,782.9,691.42Z"/><path class="cls-6" d="M812.22,648.48s19.31-34.64,29.93-42.74C842.15,605.74,837.33,644.6,812.22,648.48Z"/><path class="cls-6" d="M816.65,622.62s.21-17.77-12.17-23.35S805.69,616.82,816.65,622.62Z"/><path class="cls-6" d="M820.6,610.06c-3.42-15.88,14-27.24,14-27.24S831.62,607.14,820.6,610.06Z"/><path class="cls-6" d="M817.57,604c-13.75-8.64-9.76-29-9.76-29S823.17,594.07,817.57,604Z"/><path d="M737.66,727l-.29-.82c46.18-16.6,75.15-71.23,80.4-96.79,3.17-15.46-2.31-31.65-2.36-31.81l.82-.29c.06.17,5.61,16.59,2.39,32.27-2.29,11.15-10.09,31.35-24.53,51.58C782.89,696.85,764,717.54,737.66,727Z"/><path d="M778.29,700l-.33-.8a160.23,160.23,0,0,0,33.4-20.28,81.53,81.53,0,0,0,14-14c4.87-5.94,8.72-10.63,20.32-14.35l.26.83c-11.35,3.63-14.94,8-19.91,14.07A83,83,0,0,1,811.9,679.6,160.69,160.69,0,0,1,778.29,700Z"/><path d="M782,695.63l-.73-.47c7.16-11.25,7.08-50.95,7.08-51.35h.87C789.23,645.45,789.31,684.16,782,695.63Z"/><path d="M812.45,648.85l-.46-.74c12.72-7.89,26.78-32.14,26.92-32.39l.75.43C839.52,616.4,825.35,640.85,812.45,648.85Z"/><path d="M818.61,629.61l-.84-.22c1.55-5.95-12.37-23.6-12.51-23.78l.68-.53C806.52,605.81,820.27,623.25,818.61,629.61Z"/><path d="M819.47,615.12l-.8-.34c2.42-5.57,8.51-20.68,8.57-20.84l.8.33C828,594.42,821.89,609.54,819.47,615.12Z"/><ellipse class="cls-7" cx="503.33" cy="779.53" rx="347.68" ry="23.4"/><path class="cls-4" d="M575.29,481.2q3.48,3.68,7.16,7.14c21.77,20.48,34.6,48.72,34.46,78.62l-.15,29.62a78.51,78.51,0,0,0,16.35,48.26l18.5,23.95.6.77L749,670l22.51-28.58a78.33,78.33,0,0,0,16.79-48.1l.11-24.17c.14-29.56,12.28-58,34.33-77.75,4.19-3.75,8.21-7.7,12-11.83a177.77,177.77,0,1,0-259.47,1.62Z"/><path class="cls-4" d="M749.21,670.44H749L652,670l-.73-.94-18.51-24a79.28,79.28,0,0,1-16.43-48.52l.15-29.63c.13-29.12-12.38-57.65-34.33-78.29-2.43-2.29-4.85-4.7-7.18-7.16h0a178.2,178.2,0,1,1,260.11-1.62c-3.79,4.1-7.85,8.09-12.05,11.85-21.59,19.3-34,47.53-34.19,77.44l-.11,24.16a79.14,79.14,0,0,1-16.88,48.37Zm-96.78-1.31,96.36.44,22.38-28.41a78.32,78.32,0,0,0,16.69-47.83l.11-24.17c.15-30.15,12.71-58.61,34.48-78.07,4.18-3.75,8.22-7.72,12-11.8A176.86,176.86,0,0,0,881.6,359.7c.31-67.67-38.81-130.59-99.67-160.29a175.61,175.61,0,0,0-75.88-17.87h-1.87c-97.75,0-175.42,76.09-177.22,174A176.3,176.3,0,0,0,575.6,480.9h0c2.31,2.45,4.71,4.84,7.14,7.12,22.12,20.81,34.73,49.58,34.59,78.94l-.14,29.62a78.41,78.41,0,0,0,16.25,48Z"/><path class="cls-5" d="M546.53,517.33a2.15,2.15,0,0,1-1.57-.68,219,219,0,0,1-60.43-155.71,2.17,2.17,0,0,1,4.34.08A214.71,214.71,0,0,0,548.1,513.66a2.17,2.17,0,0,1-.08,3.07A2.15,2.15,0,0,1,546.53,517.33Z"/><path class="cls-5" d="M914.73,293.2a2.16,2.16,0,0,1-2-1.41A225.35,225.35,0,0,0,703.86,145.55a2.17,2.17,0,0,1,0-4.34h0A230,230,0,0,1,916.76,290.27a2.17,2.17,0,0,1-1.27,2.79A2.27,2.27,0,0,1,914.73,293.2Z"/><path class="cls-5" d="M812.16,626.31h0a2.16,2.16,0,0,1-2.16-2.18c.18-39,16.46-75.92,44.67-101.13a2.17,2.17,0,0,1,2.89,3.23c-27.29,24.4-43,60.09-43.23,97.93A2.16,2.16,0,0,1,812.16,626.31Z"/><path class="cls-8" d="M630.17,658.3l3.35,69.35,29.51.14,115.88.54L775.55,659a17.19,17.19,0,0,0-6.67-14.22c-11.43-9.24-36.39-10.4-65.38-10.53-10.33-.05-20.15,0-29,.58-18.55,1.14-33.05,4.26-39.59,12.3a17.19,17.19,0,0,0-3.8,11.2Z"/><path d="M779.37,728.77h-.46l-46.3-.21-99.5-.47,0-.41-3.38-69.81h.92a17.72,17.72,0,0,1,3.9-11c5.92-7.28,18.23-11.12,39.89-12.45,9.66-.59,20.12-.63,29.08-.58,27.82.12,53.78,1,65.66,10.62A17.79,17.79,0,0,1,776,659Zm-145.43-1.55,98.67.46,45.84.21L775.12,659a16.73,16.73,0,0,0-6.51-13.9c-11.66-9.42-37.45-10.31-65.12-10.43-9,0-19.38,0-29,.58-21.12,1.29-33.6,5.14-39.28,12.13a16.76,16.76,0,0,0-3.71,10.93v.43h-.87Z"/><g class="cls-9"><path class="cls-10" d="M661.29,636.09s-.72,58.78,58.9,84.45c0,0-81.07,13.15-86.67,7.11l-3.35-69.35S627.8,638.81,661.29,636.09Z"/></g><ellipse class="cls-2" cx="706.04" cy="729.74" rx="15.73" ry="72.7" transform="translate(-26.99 1432.37) rotate(-89.73)"/><path d="M707.59,745.91H706c-19.45-.09-37.73-1.81-51.47-4.85-13.94-3.09-21.6-7.22-21.58-11.65,0-8.94,31.34-15.82,71.55-15.82h1.65c41,.19,73.1,7.44,73,16.5,0,4.43-7.72,8.49-21.68,11.45C744.1,744.36,726.43,745.91,707.59,745.91Zm-3-31.46c-38.49,0-70.76,6.77-70.8,14.95,0,3.92,7.6,7.86,20.9,10.8,13.69,3,31.91,4.74,51.29,4.83s37.62-1.45,51.34-4.35c13.32-2.82,21-6.68,21-10.6,0-8.29-33-15.45-72.19-15.63Z"/><path class="cls-11" d="M754.89,739.23l-.08,16.9-22.54-.1.08-16.91h.14c0-3.47,5-6.27,11.23-6.24S754.9,735.75,754.89,739.23Z"/><path d="M755.24,756.57h-.44l-22.53-.11h-.44l.09-17.77h.16c.19-1.68,1.41-3.22,3.5-4.38a17.13,17.13,0,0,1,8.14-1.86c6.41,0,11.62,3.07,11.6,6.78l-.08,16.84v.06h0Zm-22.54-1,18.59.08c1.57,0,2.51,0,3.09,0l.07-16.49c0-3.24-4.8-5.89-10.74-5.92a16.08,16.08,0,0,0-7.71,1.76c-2,1.1-3.07,2.54-3.08,4.06v.43h-.14Z"/><path class="cls-2" d="M743.57,749.78c-6.23,0-11.28,2.77-11.3,6.25s5,6.32,11.24,6.35,11.28-2.77,11.3-6.25S749.79,749.81,743.57,749.78Z"/><path d="M743.6,762.81h-.09a16.92,16.92,0,0,1-8.17-1.94c-2.27-1.28-3.51-3-3.5-4.84s1.26-3.56,3.54-4.82a17.07,17.07,0,0,1,8.09-1.86h.1c6.45,0,11.69,3.07,11.67,6.79S750,762.81,743.6,762.81Zm-.13-12.59c-5.93,0-10.75,2.59-10.77,5.81,0,1.52,1.08,3,3.06,4.09a16.19,16.19,0,0,0,7.75,1.82h.1c5.93,0,10.75-2.59,10.76-5.81s-4.83-5.88-10.8-5.91Z"/><path class="cls-11" d="M677.27,738.87l-.08,16.9-22.54-.1.08-16.91h.14c0-3.48,5-6.27,11.23-6.24S677.28,735.39,677.27,738.87Z"/><path d="M677.62,756.21h-.44l-22.53-.1h-.43l.08-17.77h.16c.4-3.49,5.43-6.25,11.54-6.25h.1c6.42,0,11.62,3.08,11.6,6.79l-.08,16.84v.06h0Zm-22.53-1,18.58.09c1.57,0,2.52,0,3.09,0l.08-16.49c0-3.24-4.81-5.89-10.74-5.92H666c-5.89,0-10.68,2.6-10.7,5.81v.44h-.14Z"/><path class="cls-2" d="M666,749.42c-6.22,0-11.28,2.77-11.3,6.25s5,6.32,11.24,6.35,11.28-2.77,11.3-6.25S672.17,749.45,666,749.42Z"/><path d="M666,762.45h-.1a17,17,0,0,1-8.17-1.94c-2.27-1.28-3.51-3-3.5-4.85,0-3.69,5.23-6.67,11.64-6.67H666a17.06,17.06,0,0,1,8.17,1.93c2.27,1.28,3.51,3,3.5,4.85C677.61,759.47,672.39,762.45,666,762.45Zm-.14-12.6c-5.93,0-10.75,2.6-10.77,5.82,0,1.52,1.08,3,3.06,4.09a16.22,16.22,0,0,0,7.75,1.82h.1c5.93,0,10.75-2.6,10.77-5.81,0-1.52-1.08-3-3.06-4.09a16.31,16.31,0,0,0-7.75-1.83Z"/><path class="cls-12" d="M778.91,363.39c12-54.53-1.93-90.29-75-112.27C591.35,217.28,489.08,314,603.94,447.79c57.11,66.52-9.6,177.29,70.54,173.75,77.16-3.4,21.68-60.52,45.71-111.81C751.89,442.05,761.78,441.45,778.91,363.39Z"/><path class="cls-13" d="M457.24,391.52c11-12.66,19.28,6.58,8.29,19"/><path d="M465.85,410.75l-.65-.57c5.15-5.79,5.91-13,4.38-17.53-.89-2.64-2.51-4.37-4.46-4.76-2.31-.45-4.92.9-7.55,3.92l-.65-.57c3.59-4.13,6.53-4.57,8.37-4.2,2.26.45,4.12,2.39,5.11,5.33C472,397.16,471.23,404.7,465.85,410.75Z"/><path class="cls-14" d="M637.15,117.7,621.24,219.4l31.83,12a116.09,116.09,0,0,0,74.68,2.44l42-12.76L746.86,117.7Z"/><polygon class="cls-15" points="687.31 181.94 531.76 117.7 687.31 52.74 845.75 117.7 687.31 181.94"/><path d="M687.31,182.41l-.16-.07L530.63,117.7,687.31,52.27l.17.07L846.9,117.7ZM532.89,117.7l154.42,63.77L844.6,117.7,687.31,53.21Z"/><polygon class="cls-11" points="688.76 117.34 606 153.26 606 219.32 621.24 234.17 612.87 161.16 688.76 117.34"/><path d="M621.81,235.33,605.57,219.5V153l.26-.11,82.75-35.93.39.77L613.33,161.4Zm-15.38-16.19L620.67,233l-8.26-72.08L682,120.76l-75.53,32.79Z"/><polygon class="cls-2" points="606 153.26 595.1 194.57 606 196.83 606 153.26"/><path d="M606.43,197.36l-11.87-2.46,11.87-45Zm-10.79-3.12,9.93,2.06V156.61Z"/><rect class="cls-5" x="32.37" y="239.47" width="221.77" height="133.54" rx="24.21"/><path d="M233.13,373.44H53.39A21.47,21.47,0,0,1,31.94,352V260.48A21.47,21.47,0,0,1,53.39,239H233.13a21.47,21.47,0,0,1,21.45,21.44V352A21.47,21.47,0,0,1,233.13,373.44ZM53.39,239.9a20.6,20.6,0,0,0-20.58,20.58V352a20.6,20.6,0,0,0,20.58,20.57H233.13A20.6,20.6,0,0,0,253.71,352V260.48a20.6,20.6,0,0,0-20.58-20.58Z"/><path class="cls-8" d="M114.54,276.06v54.77a5.76,5.76,0,0,0,8.55,5l49.48-27.38a5.76,5.76,0,0,0,0-10.08L123.09,271A5.76,5.76,0,0,0,114.54,276.06Z"/><path d="M120.3,337a6.24,6.24,0,0,1-3.14-.86,6.14,6.14,0,0,1-3-5.34V276.06a6.2,6.2,0,0,1,9.19-5.42L172.78,298a6.2,6.2,0,0,1,0,10.84L123.3,336.25A6.19,6.19,0,0,1,120.3,337Zm0-66.3a5.36,5.36,0,0,0-2.7.74,5.29,5.29,0,0,0-2.62,4.59v54.77a5.32,5.32,0,0,0,7.9,4.66l49.47-27.38a5.32,5.32,0,0,0,0-9.32L122.88,271.4A5.28,5.28,0,0,0,120.3,270.73Z"/><path class="cls-5" d="M248.94,401.94H37.58a5.21,5.21,0,0,1-5.21-5.21h0a5.22,5.22,0,0,1,5.21-5.21H248.94a5.22,5.22,0,0,1,5.21,5.21h0A5.21,5.21,0,0,1,248.94,401.94Z"/><path d="M248.94,402.37H37.58a5.64,5.64,0,1,1,0-11.28H248.94a5.64,5.64,0,0,1,0,11.28ZM37.58,392a4.78,4.78,0,0,0,0,9.55H248.94a4.78,4.78,0,0,0,0-9.55Z"/><rect class="cls-5" x="105.29" y="385.74" width="20.25" height="20.25" rx="6.83"/><path d="M119.61,406.42h-8.39a6.37,6.37,0,0,1-6.37-6.36v-8.39a6.38,6.38,0,0,1,6.37-6.37h8.39a6.37,6.37,0,0,1,6.36,6.37v8.39A6.36,6.36,0,0,1,119.61,406.42Zm-8.39-20.25a5.51,5.51,0,0,0-5.5,5.5v8.39a5.51,5.51,0,0,0,5.5,5.5h8.39a5.5,5.5,0,0,0,5.49-5.5v-8.39a5.5,5.5,0,0,0-5.49-5.5Z"/><polygon class="cls-5" points="430.95 145.79 425.05 175.75 471.97 88.48 430.95 145.79"/><path d="M424.07,178.5l6.53-33,41-57.31.73.45ZM431.36,146,426,173l42.35-78.77Z"/><polygon class="cls-5" points="471.97 88.48 389.94 145.79 430.95 145.79 453.62 173.2 471.97 88.48"/><path d="M453.86,174.16l-23.11-27.93H388.56l84.07-58.74-.24,1.08Zm-62.54-28.8h39.84l22.23,26.87,17.92-82.76Z"/><rect x="416.22" y="116.7" width="70.48" height="0.87" transform="translate(93.48 416.11) rotate(-54.41)"/><rect class="cls-5" x="469.6" y="241.1" width="43.64" height="43.64" rx="13.45"/><path d="M501.57,285.17h-20.3a12.12,12.12,0,0,1-12.11-12.1v-20.3a12.11,12.11,0,0,1,12.11-12.1h20.3a12.11,12.11,0,0,1,12.1,12.1v20.3A12.12,12.12,0,0,1,501.57,285.17Zm-20.3-43.64A11.25,11.25,0,0,0,470,252.77v20.3a11.25,11.25,0,0,0,11.24,11.23h20.3a11.25,11.25,0,0,0,11.23-11.23v-20.3a11.25,11.25,0,0,0-11.23-11.24Z"/><polygon points="485.04 276.57 469.24 253.62 469.96 253.13 485.13 275.17 512.91 243.73 513.56 244.31 485.04 276.57"/><path class="cls-5" d="M604.88,272.25H532a9.44,9.44,0,0,1-9.44-9.44h0a9.44,9.44,0,0,1,9.44-9.44h72.88a9.44,9.44,0,0,1,9.44,9.44h0A9.44,9.44,0,0,1,604.88,272.25Z"/><path d="M606,272.68H530.86a8.76,8.76,0,0,1-8.74-8.74v-2.26a8.76,8.76,0,0,1,8.74-8.74H606a8.75,8.75,0,0,1,8.74,8.74v2.26A8.75,8.75,0,0,1,606,272.68Zm-75.15-18.87a7.88,7.88,0,0,0-7.87,7.87v2.26a7.88,7.88,0,0,0,7.87,7.88H606a7.88,7.88,0,0,0,7.87-7.88v-2.26a7.88,7.88,0,0,0-7.87-7.87Z"/><rect class="cls-5" x="493.1" y="297.32" width="43.64" height="43.64" rx="13.45"/><path d="M525.07,341.39h-20.3a12.12,12.12,0,0,1-12.1-12.1V309a12.12,12.12,0,0,1,12.1-12.11h20.3A12.12,12.12,0,0,1,537.18,309v20.3A12.12,12.12,0,0,1,525.07,341.39Zm-20.3-43.64A11.25,11.25,0,0,0,493.54,309v20.3a11.25,11.25,0,0,0,11.23,11.23h20.3a11.25,11.25,0,0,0,11.24-11.23V309a11.25,11.25,0,0,0-11.24-11.24Z"/><polygon points="508.55 332.79 492.74 309.84 493.46 309.35 508.63 331.39 536.42 299.95 537.07 300.52 508.55 332.79"/><rect class="cls-5" x="546.06" y="309.59" width="91.76" height="18.88" rx="9.44"/><path d="M629.51,328.9H554.37a8.75,8.75,0,0,1-8.74-8.74V317.9a8.75,8.75,0,0,1,8.74-8.74h75.14a8.75,8.75,0,0,1,8.74,8.74v2.26A8.75,8.75,0,0,1,629.51,328.9ZM554.37,310a7.88,7.88,0,0,0-7.87,7.87v2.26a7.89,7.89,0,0,0,7.87,7.88h75.14a7.9,7.9,0,0,0,7.88-7.88V317.9a7.89,7.89,0,0,0-7.88-7.87Z"/><polygon class="cls-16" points="223.55 361.09 247.42 417.47 258.09 397.01 280.84 413.9 290.07 400.35 266.34 385.07 280.7 364.14 223.55 361.09"/><polygon class="cls-17" points="193.66 555.38 427.73 364.43 503.33 534.35 333.38 648.34 193.66 555.38"/><path class="cls-2" d="M806.72,568.16a.4.4,0,0,1-.38-.24.42.42,0,0,1,.19-.58c3-1.52,6.14-3.14,9.26-4.81a.44.44,0,0,1,.41.77c-3.13,1.67-6.25,3.29-9.28,4.82A.45.45,0,0,1,806.72,568.16Zm31.21-17.29a.44.44,0,0,1-.38-.21.45.45,0,0,1,.15-.6c12.3-7.44,23.93-15.26,34.58-23.25a.43.43,0,0,1,.61.08.44.44,0,0,1-.09.61c-10.67,8-22.33,15.85-34.65,23.31A.46.46,0,0,1,837.93,550.87Zm42.86-29.66a.42.42,0,0,1-.33-.17.44.44,0,0,1,.06-.61c6.78-5.4,13.19-10.94,19-16.45a.44.44,0,1,1,.6.63c-5.87,5.53-12.29,11.08-19.09,16.5A.38.38,0,0,1,880.79,521.21ZM429.71,485.29c-4.22,0-8.33-.19-12.23-.57a.44.44,0,0,1-.39-.47.44.44,0,0,1,.48-.39c3.86.37,7.95.56,12.14.56a185.22,185.22,0,0,0,29.23-2.55.43.43,0,0,1,.5.36.44.44,0,0,1-.36.5A185.79,185.79,0,0,1,429.71,485.29Zm-22.48-2.07h-.09a76.91,76.91,0,0,1-23.63-8.7.43.43,0,1,1,.43-.75,75.93,75.93,0,0,0,23.37,8.6.43.43,0,0,1-.08.86Zm76.42-5.65a.44.44,0,0,1-.1-.86c3.28-.83,6.67-1.73,10.05-2.69a.45.45,0,0,1,.54.3.43.43,0,0,1-.3.53c-3.4,1-6.79,1.87-10.08,2.7Zm443.83-4a.38.38,0,0,1-.25-.08.42.42,0,0,1-.1-.6c2-2.86,4-5.77,5.77-8.64a.43.43,0,0,1,.6-.14.45.45,0,0,1,.14.6c-1.8,2.89-3.75,5.81-5.81,8.68A.42.42,0,0,1,927.48,473.57ZM533.31,461.82a.45.45,0,0,1-.41-.28.44.44,0,0,1,.26-.56c7.47-2.77,15.37-5.84,23.47-9.15a.44.44,0,0,1,.32.81c-8.1,3.3-16,6.38-23.49,9.15Zm33.11-13.14a.43.43,0,0,1-.17-.83c11.89-5,24.36-10.49,38.15-16.82a.43.43,0,0,1,.57.22.42.42,0,0,1-.21.57c-13.79,6.33-26.28,11.83-38.17,16.83A.51.51,0,0,1,566.42,448.68ZM356.5,444a.44.44,0,0,1-.4-.25c-1.5-3.15-3-6.35-4.32-9.49a.44.44,0,0,1,.23-.57.43.43,0,0,1,.57.22c1.36,3.14,2.81,6.32,4.31,9.46a.44.44,0,0,1-.21.58A.41.41,0,0,1,356.5,444Zm588-1.49a.41.41,0,0,1-.16,0,.44.44,0,0,1-.25-.56,98.3,98.3,0,0,0,6.67-35c0-1.85-.06-3.73-.17-5.58a.43.43,0,1,1,.86-.05c.12,1.87.18,3.76.18,5.63a99.33,99.33,0,0,1-6.73,35.3A.43.43,0,0,1,944.52,442.46ZM627.41,421.2A.44.44,0,0,1,627,421a.44.44,0,0,1,.21-.58q4.69-2.22,9.4-4.48a.44.44,0,0,1,.37.79l-9.4,4.48A.41.41,0,0,1,627.41,421.2ZM343.29,410.94a.44.44,0,0,1-.41-.3,219.35,219.35,0,0,1-9-40.68.44.44,0,0,1,.38-.49.43.43,0,0,1,.48.38,218.24,218.24,0,0,0,9,40.52.43.43,0,0,1-.28.55Zm331-12.45a.44.44,0,0,1-.39-.24.45.45,0,0,1,.2-.59q7.25-3.54,14.44-7.09l8.18-4a.42.42,0,0,1,.58.2.43.43,0,0,1-.2.58l-8.18,4-14.44,7.09A.41.41,0,0,1,674.32,398.49Zm275.5-7.11a.44.44,0,0,1-.43-.36A102.16,102.16,0,0,0,942,367.14a.43.43,0,0,1,.22-.57.44.44,0,0,1,.57.22,103.28,103.28,0,0,1,7.46,24.08.43.43,0,0,1-.36.5Zm-243.52-8.6a.44.44,0,0,1-.19-.83c10.4-5.1,24.07-11.77,37.54-18.18a.44.44,0,0,1,.37.79c-13.47,6.4-27.13,13.08-37.53,18.17A.45.45,0,0,1,706.3,382.78ZM333.29,360a.44.44,0,0,1-.44-.4c-.3-4.41-.45-8.87-.45-13.26,0-4,.12-8,.37-11.94a.45.45,0,0,1,.46-.41.44.44,0,0,1,.41.46c-.25,3.94-.37,7.94-.37,11.89,0,4.37.15,8.81.45,13.2a.42.42,0,0,1-.4.46Zm433.38-6a.44.44,0,0,1-.4-.25.45.45,0,0,1,.22-.58q4.78-2.19,9.5-4.3a.43.43,0,1,1,.35.79q-4.7,2.12-9.49,4.3A.39.39,0,0,1,766.67,353.93Zm48-20.4a.44.44,0,0,1-.41-.28.44.44,0,0,1,.25-.56c8.5-3.25,16.5-6.07,23.8-8.36a.43.43,0,0,1,.54.29.42.42,0,0,1-.28.54c-7.28,2.29-15.27,5.09-23.75,8.34Zm105.2-1a.43.43,0,0,1-.33-.15c-1.48-1.73-3-3.49-4.62-5.22a28.24,28.24,0,0,0-2.42-2.35.43.43,0,0,1,.56-.66,30.09,30.09,0,0,1,2.5,2.42c1.6,1.74,3.16,3.51,4.64,5.25a.44.44,0,0,1,0,.61A.42.42,0,0,1,919.84,332.56Zm-71.43-10.33a.42.42,0,0,1-.42-.32.42.42,0,0,1,.3-.53c14.34-3.93,26.24-5.83,36.38-5.83,1.66,0,3.29.05,4.85.16a.42.42,0,0,1,.4.46.43.43,0,0,1-.46.4c-1.53-.1-3.15-.16-4.79-.16-10.06,0-21.89,1.9-36.15,5.81ZM340.25,293.87h-.12a.44.44,0,0,1-.3-.54c.93-3.31,2-6.66,3.09-10a.44.44,0,0,1,.55-.28.45.45,0,0,1,.27.55c-1.11,3.29-2.15,6.63-3.08,9.93A.43.43,0,0,1,340.25,293.87Zm12.45-33.28a.53.53,0,0,1-.18,0,.43.43,0,0,1-.21-.58,282.06,282.06,0,0,1,20.46-36.33.43.43,0,0,1,.72.48,282.77,282.77,0,0,0-20.4,36.22A.44.44,0,0,1,352.7,260.59ZM379,215.69a.41.41,0,0,1-.25-.08.43.43,0,0,1-.1-.6c4.45-6.38,9.22-12.82,15-20.26a.44.44,0,0,1,.61-.08.43.43,0,0,1,.07.61c-5.76,7.43-10.52,13.86-15,20.23A.44.44,0,0,1,379,215.69Zm40.56-53.16a.37.37,0,0,1-.24-.08.42.42,0,0,1-.11-.6,78.11,78.11,0,0,0,5.48-8.79.43.43,0,0,1,.77.4,79.85,79.85,0,0,1-5.54,8.89A.43.43,0,0,1,419.54,162.53Z"/><polygon class="cls-8" points="324 631.02 417.11 602.15 447.46 492.98 471.97 598.54 453.92 644.73 324 644.73 324 631.02"/><path d="M454.22,645.17H323.56V630.7l.31-.1,92.89-28.8L447.5,491.23l24.92,107.34-.05.13Zm-129.79-.87h129.2l17.89-45.8-24.1-103.76L417.47,602.49l-.23.07-92.81,28.78Z"/><g class="cls-9"><polygon class="cls-10" points="428.9 559.74 434.68 638.51 485.15 573.19 448.72 488.15 428.9 559.74"/></g><polygon class="cls-18" points="284.93 624.47 485.32 666.05 453.92 713.3 279.25 678.66 284.93 624.47"/><path class="cls-15" d="M242.7,646.41h0A34.73,34.73,0,0,0,264.89,691L400.4,763.21l24.65-34.75-134.79-102A34.73,34.73,0,0,0,242.7,646.41Z"/><path d="M400.54,763.77l-.34-.18L264.69,691.36a35.14,35.14,0,0,1-22.4-45.09h0a35.16,35.16,0,0,1,48.15-20.19l.08,0L425.65,728.37ZM242.7,646.41l.4.14a34.31,34.31,0,0,0,21.92,44l135.25,72.08,24.18-34.09L290,626.84a34.31,34.31,0,0,0-46.93,19.71Z"/><path class="cls-14" d="M383.91,799.92c-17.51-5.68,41.14-75.79,41.14-75.79l21,15a18.21,18.21,0,0,1,1.58,28.37C429.77,783.6,401.25,805.55,383.91,799.92Z"/><path class="cls-11" d="M383.91,800.64c-1.71-6,57-67.12,57-67.12s21.18,6,12.75,29S386.8,810.75,383.91,800.64Z"/><path d="M388.9,803.37h-.54c-2.77-.1-4.41-1-4.87-2.6-1.72-6,51.1-61.27,57.13-67.55l.18-.18.25.07c.36.1,9,2.6,13,10.53,2.7,5.27,2.71,11.66,0,19C446.92,782.22,404,803.37,388.9,803.37ZM441.06,734c-23.54,24.52-57.93,62.32-56.73,66.51h0c.34,1.22,1.71,1.89,4.06,2h.53c14.88,0,57.28-20.84,64.36-40.17,2.59-7.1,2.6-13.25,0-18.3C449.79,737.16,442.49,734.48,441.06,734Z"/><path class="cls-8" d="M445.26,511.2c-5.66-40.67,56.37-61,83-45.47,26,15.15,59.91,49.08,46.2,220.15l-124.88-18S456.81,594.21,445.26,511.2Z"/><path d="M574.86,686.37,449.12,668.2l0-.41c.07-.74,7.08-74.53-4.33-156.53-2.09-15.07,4.94-28.85,19.81-38.82,19.5-13.07,48.14-16.25,63.85-7.09,13.23,7.72,28.11,19.91,38.18,51.85,11.67,37,14.36,92.2,8.23,168.71Zm-124.8-18.91,124,17.92c12.92-162-16-201.77-46-219.28-15.45-9-43.68-5.84-62.93,7.06-14.58,9.77-21.48,23.26-19.43,38C456.67,590.06,450.61,661.39,450.06,667.46Z"/><g class="cls-9"><path class="cls-10" d="M449.88,664.48l95.28-12.18a29.48,29.48,0,0,0,25.25-34.66L547.94,497.15,513,517.57l7.45,95.56-70.58,5.7Z"/></g><rect class="cls-11" x="301.62" y="641.12" width="110.44" height="7.22"/><path d="M412.49,648.78H301.19v-8.09h111.3Zm-110.43-.87H411.63v-6.35H302.06Z"/><path class="cls-8" d="M401.23,623.08l114-23.1-17.86-84.12a28.9,28.9,0,0,1,14.65-31.5h0a28.9,28.9,0,0,1,41.83,19.17l19.23,85.83A45.09,45.09,0,0,1,532.4,644.2l-126.12,9.2Z"/><path d="M405.92,653.86l-5.18-31.12.41-.09,113.61-23L497,516a29.48,29.48,0,0,1,14.88-32,29.35,29.35,0,0,1,42.46,19.47l19.23,85.82a45.55,45.55,0,0,1-41.13,55.38Zm-4.19-30.44,4.92,29.51,125.72-9.16a44.68,44.68,0,0,0,40.34-54.32l-19.23-85.82a28.47,28.47,0,0,0-41.2-18.89,28.61,28.61,0,0,0-14.44,31l17.95,84.55-.43.09Z"/><g class="cls-9"><path class="cls-10" d="M444.91,505.47c-.91,17.76,44.18-25.09,90.5-35.12,0,0-31.4-20.43-52.86-13.69A54.31,54.31,0,0,0,444.91,505.47Z"/></g><path class="cls-15" d="M193.38,726.93l21.66,39,186.19-42.5,68.57,31.14a72.31,72.31,0,0,0,100.42-49.9l4.25-18.77-169-37.59Z"/><path class="cls-15" d="M214.82,766.41,192.76,726.7l.47-.17L405.4,647.84l.13,0L575,685.55l-4.34,19.2a72.74,72.74,0,0,1-101,50.19l-68.43-31.07ZM194,727.16l21.25,38.25,186-42.46.13.07L470,754.15a71.87,71.87,0,0,0,99.82-49.59L574,686.21,405.46,648.74Z"/><path class="cls-14" d="M107.46,737.12c-1-25.4,59.18,9.39,89.5-2.16l18,31-44,19.49S108.9,773.22,107.46,737.12Z"/><polygon class="cls-11" points="338.44 648.34 213.56 648.34 198.71 555.38 323.59 555.38 338.44 648.34"/><path d="M338.94,648.78H213.19L198.2,555H324Zm-125-.87h124l-14.71-92.09h-124Z"/><polygon class="cls-14" points="333.38 648.34 208.51 648.34 193.66 555.38 318.53 555.38 333.38 648.34"/><path class="cls-13" d="M350.34,641.12s8.48-19.91,51.7-13.2l2.2,13.2Z"/><path d="M404.75,641.56H349.69l.26-.6c.08-.21,9.1-20.15,52.16-13.47l.31,0Zm-53.68-.87h52.66l-2.07-12.39C363.88,622.53,353,637.45,351.07,640.69Z"/><path d="M357.16,641.42l-.63-.59c.25-.27,6.42-6.64,23.68-10.24l.18.85C363.4,635,357.22,641.36,357.16,641.42Z"/><path class="cls-8" d="M458.25,493.15c-34.7,17.36-15.48-26.22,4.34-45.47,25.26-24.54,57.41-49.18,81.56-23.1C580.24,463.56,505.89,469.33,458.25,493.15Z"/><path d="M445.48,497.6q-3.76,0-5.51-2.45c-5.65-8,7.78-33.66,22.31-47.78,16.53-16.05,38-34.37,58.11-34.37h.87c8.68.23,16.49,4,23.21,11.28,7.86,8.49,10.88,15.78,9.24,22.28-3.4,13.47-26.16,21.26-52.51,30.27-14.54,5-29.59,10.12-42.75,16.7h0Q450.34,497.61,445.48,497.6Zm74.91-83.74c-19.8,0-41.1,18.2-57.5,34.13-14,13.6-27.54,39.15-22.21,46.66,2.33,3.28,8.34,2.63,17.38-1.88h0c13.22-6.61,28.29-11.77,42.86-16.75,26.11-8.93,48.67-16.65,51.95-29.67,1.57-6.19-1.39-13.21-9-21.47-6.55-7.08-14.15-10.78-22.6-11Z"/><g class="cls-9"><path class="cls-10" d="M457.24,462.94c-9.76,18.41,5.93,20.26,25.31,6s31.83-31.81,5.19-21.78S457.24,462.94,457.24,462.94Z"/></g><path class="cls-13" d="M473.08,411.84l18.56,44.67a104.54,104.54,0,0,1-30.32,17.57l-13.06-35.73s-8.85,7.16-16.41,3.73c-5.76-2.63-30.92-61.16-4.12-77.65S470.34,387.1,473.08,411.84Z"/><path d="M461.06,474.64l-13-35.59c-2,1.46-9.6,6.51-16.39,3.42-3.87-1.76-15-25.58-16.36-46.87-.95-15.14,3.27-26.05,12.19-31.54,7.37-4.53,14.4-5.22,20.91-2,15.17,7.41,23.31,33.76,25.1,49.71l18.65,44.89-.23.21a106.24,106.24,0,0,1-30.46,17.66Zm-12.6-37,13.12,35.89a105.78,105.78,0,0,0,29.54-17.14L472.66,412v-.06c-1.75-15.76-9.75-41.83-24.62-49.09-6.23-3-13-2.37-20.07,2-10.91,6.72-12.43,20.43-11.79,30.75,1.35,21.59,12.69,44.7,15.86,46.14,7.23,3.28,15.87-3.6,16-3.67Z"/><path class="cls-14" d="M422.29,418.3c-27.2,11.75-1.77,46.8,18.15,36.49s20.62-57,15.12-66l23.89,38.34s20.78-75.45-17-69.26c0,0-9.62-22-35-5.5s-33.67-1.37-41.23,11.68,7.47,32,35.73,22.68C459.37,374.35,451.66,410.17,422.29,418.3Z"/><g class="cls-9"><polygon class="cls-10" points="348.37 735.48 401.23 723.41 418.95 731.65 377.29 750.89 348.37 735.48"/></g><rect class="cls-11" x="305.75" y="150.39" width="36.5" height="36.5" rx="8.86"/><rect class="cls-5" x="303.08" y="168.47" width="40.23" height="0.87" transform="translate(-24.77 278.03) rotate(-45)"/><rect class="cls-5" x="322.76" y="148.79" width="0.87" height="40.23" transform="translate(-24.77 278) rotate(-45)"/><path class="cls-5" d="M20.84,481.35a20.84,20.84,0,1,1,20.84-20.84A20.87,20.87,0,0,1,20.84,481.35Zm0-39.94a19.1,19.1,0,1,0,19.1,19.1A19.12,19.12,0,0,0,20.84,441.41Z"/><path class="cls-5" d="M861.85,217.67a20.84,20.84,0,1,1,20.84-20.84A20.87,20.87,0,0,1,861.85,217.67Zm0-39.94a19.1,19.1,0,1,0,19.1,19.1A19.12,19.12,0,0,0,861.85,177.73Z"/><circle class="cls-5" cx="72.23" cy="655.15" r="19.97" transform="translate(-442.1 242.96) rotate(-45)"/><circle class="cls-5" cx="478.63" cy="21.73" r="17.76"/><rect class="cls-5" x="794.92" y="470.61" width="43.47" height="1.74" transform="translate(-94.2 715.52) rotate(-45)"/><rect class="cls-5" x="815.79" y="449.74" width="1.74" height="43.47" transform="translate(-94.19 715.55) rotate(-45)"/><rect class="cls-5" x="894.91" y="112.2" width="30.36" height="1.74" transform="translate(186.63 676.68) rotate(-45)"/><rect class="cls-5" x="909.22" y="97.88" width="1.74" height="30.36" transform="translate(186.62 676.65) rotate(-45)"/><rect class="cls-5" x="72.23" y="151.61" width="68.86" height="1.74"/><rect class="cls-5" x="105.79" y="118.05" width="1.74" height="68.86"/><rect class="cls-5" x="514.12" y="44.76" width="24.76" height="1.74"/><rect class="cls-5" x="525.63" y="33.24" width="1.74" height="24.76"/><rect class="cls-5" x="151.35" y="21.3" width="43.47" height="0.87"/><rect class="cls-5" x="172.65" width="0.87" height="43.47"/></g></g></g></svg>