<svg xmlns="http://www.w3.org/2000/svg" viewBox="0 0 70.58 66.11"><defs><style>.cls-1{fill:#ff8308;}.cls-2{fill:#190a00;}.cls-3,.cls-6{stroke:#000;}.cls-3,.cls-4,.cls-5,.cls-6{stroke-miterlimit:10;}.cls-4,.cls-5{stroke:#f7931e;}.cls-5{fill:#f93;}.cls-6{fill:none;stroke-width:0.75px;}</style></defs><g id="Шар_2" data-name="Шар 2"><g id="Шар_1-2" data-name="Шар 1"><path class="cls-1" d="M26.17,65.86s44,1,44.17-1.09S71.61,58,66.65,57s.76-7.54.76-7.54a52.38,52.38,0,0,0-6-3.11C54,43,50.54,14.56,47.71,7.1S21-5.25,17.52,9.87C15.89,17,6.23,48,6.23,48H1.45a5.88,5.88,0,0,1,0,7.67c-3.26,4,0,8.1,0,8.1C5.42,65.61,15.46,65.82,26.17,65.86Z"/><path class="cls-2" d="M20.93,52.64c7.89,3.43,19.64,6.7,26.62,0l9-1.77s5.28-2.22,1.1-5.54-18.95-29-18.95-29c-3.11-4.87-9.16-5.94-13.88,0-3.69,4.63-9.7,21.62-9.7,21.62S7,49.06,7.89,50.83s7.5,1.55,7.5,1.55l5.49.26"/><path class="cls-2" d="M12.7,48.39a64,64,0,0,0,8.18,4.25"/><path class="cls-3" d="M27.61,17.56c-3.77,1.67-8.31,6.84-7.5,14.66S27.87,49.82,33,49.33s13-12.63,12.66-16.62-4.47-13.17-8.31-15.15C35.21,16.44,29.84,16.57,27.61,17.56Z"/><path class="cls-4" d="M20.52,30s.17,5,5.25,4.75,4.43-3.84,4-5.38c-.35-1.13-1.92-2.31-4.68-2C23.74,27.54,20.89,27.12,20.52,30Z"/><path class="cls-5" d="M32.14,28.41l1.15,0c2.34-3,11.13-.94,11.13-.94v1.15c-.71.08-.63,1.35-.63,1.35l-.62,0c.09-2.77-2.11-2.71-5.53-2.62s-3.57,1.93-3.57,1.93l-2,0h-.29l-2,0s-.15-1.84-3.57-1.93-5.63-.15-5.54,2.62l-.61,0s.08-1.27-.64-1.35V27.51s8.79-2,11.13.94l1.16,0Z"/><path class="cls-4" d="M43,30s-.17,5-5.25,4.76-4.43-3.85-4-5.38c.35-1.14,1.92-2.32,4.68-2C39.79,27.49,42.64,27.06,43,30Z"/><path class="cls-6" d="M21.13,52.14s2.54.66,3.09.14c1.7-1.59,0-9.31,0-9.31"/><path class="cls-6" d="M39.48,44.09s-.85,6.73,0,8.74a4.49,4.49,0,0,0,3.65,2.09"/><path d="M12,59.31h-.13l-1.56,3.55H9L7.46,59.31H7.33v3.55H5.79V57H7.94l1.65,3.71h.15L11.4,57h2.11v5.88H12Z"/><path d="M19.61,61.16v.29A2.48,2.48,0,0,1,17.15,63a2.37,2.37,0,1,1,0-4.74,2.28,2.28,0,0,1,2.46,2v.56H16.2a.9.9,0,0,0,.95.79.94.94,0,0,0,.87-.43ZM16.29,60H18a.87.87,0,0,0-.86-.5A.9.9,0,0,0,16.29,60Z"/><path d="M20.61,58.34h1.52v.47a1.8,1.8,0,0,1,1.35-.58c1.38,0,1.84,1,1.84,2.29v2.34H23.8V60.53a.79.79,0,0,0-.78-.87.83.83,0,0,0-.89.89v2.31H20.61Z"/><path d="M28.17,58.34h.92v1.42h-.92v1.08c0,.43.2.67.59.67l.28,0V62.9a4.32,4.32,0,0,1-.74.07c-1.23,0-1.65-.93-1.65-2.11v-1.1H26.1V58.34h.55v-.91L28.17,57Z"/><path d="M29.81,60.6a2.31,2.31,0,0,1,2.49-2.37,2.37,2.37,0,1,1,0,4.74A2.31,2.31,0,0,1,29.81,60.6Zm1.53,0a1,1,0,1,0,1-.94A.88.88,0,0,0,31.34,60.6Z"/><path d="M35.75,58.34h1.52v.47a1.8,1.8,0,0,1,1.35-.58V59.8a2.25,2.25,0,0,0-.46,0,.86.86,0,0,0-.89.61v2.49H35.75Z"/><path d="M47.92,60.54v.38a3.19,3.19,0,0,1-3.16,2,3.08,3.08,0,1,1,0-6.16,3.13,3.13,0,0,1,3.16,2v.38H46.33a1.64,1.64,0,1,0,0,1.31Z"/><path d="M53.62,62.86H52.1v-.43a1.89,1.89,0,0,1-1.35.54,2.4,2.4,0,0,1,0-4.74,1.93,1.93,0,0,1,1.35.54v-.43h1.52ZM52.15,60.6a.94.94,0,1,0-.94.94A.87.87,0,0,0,52.15,60.6Z"/><path d="M54.87,58.34h1.52v.43a1.87,1.87,0,0,1,1.34-.54,2.4,2.4,0,0,1,0,4.74,1.83,1.83,0,0,1-1.34-.54v1.83H54.87Zm1.46,2.26a.94.94,0,1,0,.94-.94A.87.87,0,0,0,56.33,60.6Z"/><path d="M65.45,61.16v.29A2.48,2.48,0,0,1,63,63a2.37,2.37,0,1,1,0-4.74,2.28,2.28,0,0,1,2.46,2v.56H62a.9.9,0,0,0,1,.79.94.94,0,0,0,.87-.43ZM62.13,60h1.72a.87.87,0,0,0-.86-.5A.91.91,0,0,0,62.13,60Z"/></g></g></svg>